PathFileType	4	(X/Y/Z)	../motion_lab\static\static_01\task.trc
DataRate	CameraRate	NumFrames	NumMarkers	Units	OrigDataRate	OrigDataStartFrame	OrigNumFrames
200.000000	200.000000	4	73	mm	200.000000	86	693
Frame#	Time	Athlete_3:GLAB			Athlete_3:RFHD			Athlete_3:LFHD			Athlete_3:C7			Athlete_3:T6			Athlete_3:SPINMOL			Athlete_3:SPINM2			Athlete_3:SPINM3			Athlete_3:T12			Athlete_3:BELTOL			Athlete_3:BELT2			Athlete_3:BELT3			Athlete_3:SACROL			Athlete_3:SACR2			Athlete_3:SACR3			Athlete_3:LASI			Athlete_3:RASI			Athlete_3:LPSI			Athlete_3:RPSI			Athlete_3:LTHOL			Athlete_3:LTH2			Athlete_3:LTH3			Athlete_3:LKNEL			Athlete_3:LKNEM			Athlete_3:LFIB			Athlete_3:LSHAOL			Athlete_3:LSHA2			Athlete_3:LSHA3			Athlete_3:LMALL			Athlete_3:LMALM			Athlete_3:LHEE			Athlete_3:LTOE			Athlete_3:LM5			Athlete_3:RTHOL			Athlete_3:RTH2			Athlete_3:RTH3			Athlete_3:RKNEL			Athlete_3:RKNEM			Athlete_3:RFIB			Athlete_3:RSHAOL			Athlete_3:RSHA2			Athlete_3:RSHA3			Athlete_3:RMALL			Athlete_3:RMALM			Athlete_3:RHEE			Athlete_3:RTOE			Athlete_3:RM5			Athlete_3:STRN			Athlete_3:XIPH			Athlete_3:LACR			Athlete_3:LUAOL			Athlete_3:LUA2			Athlete_3:LUA3			Athlete_3:LCUBL			Athlete_3:LCUBM			Athlete_3:LLAOL			Athlete_3:LLA2			Athlete_3:LLA3			Athlete_3:LWRR			Athlete_3:LWRU			Athlete_3:RACR			Athlete_3:RUAOL			Athlete_3:RUA2			Athlete_3:RUA3			Athlete_3:RCUBL			Athlete_3:RCUBM			Athlete_3:RLAOL			Athlete_3:RLA2			Athlete_3:RLA3			Athlete_3:RWRR			Athlete_3:RWRU			Bar:BL			Bar:BR			
		X1	Y1	Z1	X2	Y2	Z2	X3	Y3	Z3	X4	Y4	Z4	X5	Y5	Z5	X6	Y6	Z6	X7	Y7	Z7	X8	Y8	Z8	X9	Y9	Z9	X10	Y10	Z10	X11	Y11	Z11	X12	Y12	Z12	X13	Y13	Z13	X14	Y14	Z14	X15	Y15	Z15	X16	Y16	Z16	X17	Y17	Z17	X18	Y18	Z18	X19	Y19	Z19	X20	Y20	Z20	X21	Y21	Z21	X22	Y22	Z22	X23	Y23	Z23	X24	Y24	Z24	X25	Y25	Z25	X26	Y26	Z26	X27	Y27	Z27	X28	Y28	Z28	X29	Y29	Z29	X30	Y30	Z30	X31	Y31	Z31	X32	Y32	Z32	X33	Y33	Z33	X34	Y34	Z34	X35	Y35	Z35	X36	Y36	Z36	X37	Y37	Z37	X38	Y38	Z38	X39	Y39	Z39	X40	Y40	Z40	X41	Y41	Z41	X42	Y42	Z42	X43	Y43	Z43	X44	Y44	Z44	X45	Y45	Z45	X46	Y46	Z46	X47	Y47	Z47	X48	Y48	Z48	X49	Y49	Z49	X50	Y50	Z50	X51	Y51	Z51	X52	Y52	Z52	X53	Y53	Z53	X54	Y54	Z54	X55	Y55	Z55	X56	Y56	Z56	X57	Y57	Z57	X58	Y58	Z58	X59	Y59	Z59	X60	Y60	Z60	X61	Y61	Z61	X62	Y62	Z62	X63	Y63	Z63	X64	Y64	Z64	X65	Y65	Z65	X66	Y66	Z66	X67	Y67	Z67	X68	Y68	Z68	X69	Y69	Z69	X70	Y70	Z70	X71	Y71	Z71	X72	Y72	Z72	X73	Y73	Z73	

87	0.43	1215.578125	1573.284545898438	353.9453735351564	1139.1767578125	1588.270996093751	294.7656555175782	1291.354858398438	1588.730346679688	290.5574035644532	1212.262329101563	1449.226318359375	128.7086791992188	1227.078979492188	1244.090454101563	74.19574737548831	1231.38818359375	1211.792846679688	70.06612396240237	1179.590942382813	1150.814575195313	65.20257568359378	1228.483642578125	1150.006591796875	74.61013793945315	1227.383666992188	1109.1962890625	87.83186340332034	1226.70703125	1086.686767578125	64.63982391357425	1173.617919921875	1027.086303710938	66.00899505615237	1223.219482421875	1024.911865234375	58.41995620727542	1248.6123046875	975.0651245117192	69.46869659423831	1198.859008789063	984.7244262695317	76.26947021484378	1210.143188476563	926.4868774414067	46.13290786743165	1337.073364257813	942.6779785156255	285.5325622558595	1109.372802734375	942.0795288085942	289.4174194335939	1260.38623046875	991.2239379882817	80.8686218261719	1171.180541992188	989.837036132813	81.45649719238284	1444.431274414063	737.4275512695315	200.0305175781251	1427.577270507813	676.6502685546877	151.0306091308594	1440.906494140625	675.4584960937502	199.590057373047	1427.59375	498.0689086914065	192.1163482666017	1283.903198242188	466.5020141601565	215.3135070800782	1428.7802734375	442.1712646484377	152.1914672851563	1450.078491210938	325.7478027343751	144.5641632080079	1444.731811523438	259.811004638672	101.4061737060547	1450.259521484375	264.0494995117189	150.7598266601563	1434.19970703125	85.2067565917969	125.9971160888672	1350.543701171875	96.31498718261724	169.2151031494141	1374.84716796875	38.76192855834962	78.42334747314456	1391.255249023438	47.3288917541504	289.6235961914064	1492.118408203125	32.14033889770509	238.5797271728517	1006.519958496094	708.3034667968752	173.4136352539063	993.0004272460942	636.1944580078127	205.1693420410157	1009.709777832032	647.6021118164065	159.2951965332032	1013.978576660157	496.8179016113284	160.0245666503907	1151.976196289063	461.740905761719	207.9585723876954	1015.323608398438	442.2834167480471	116.1909942626954	998.5061645507817	323.042449951172	91.04758453369143	983.2720336914067	255.8594360351564	130.7488403320313	1002.411193847657	261.9324951171876	84.67483520507815	1016.788269042969	86.66855621337893	89.98497009277347	1084.306884765625	96.96731567382818	152.9224395751954	1077.644287109375	38.08788299560548	58.01643371582034	1022.307495117188	43.20388031005861	261.5760498046876	937.2404785156255	40.999080657959	202.3673858642579	1224.85888671875	1366.794189453125	278.191619873047	1226.868408203125	1209.329345703125	315.6379699707032	1400.622314453125	1413.5322265625	139.2844390869141	1514.116455078125	1348.324340820313	126.7290802001954	1556.437988281251	1297.812377929688	117.4250717163087	1573.604492187501	1333.243530273438	151.4938659667969	1681.891235351563	1295.752197265625	162.6470794677735	1631.823974609376	1209.687255859375	185.6756134033204	1767.771362304688	1263.939575195313	191.3706512451172	1822.123535156251	1227.403442382813	196.8635406494142	1815.968017578126	1258.859252929688	235.5193176269532	1861.510742187501	1187.412963867188	304.8486328125001	1903.851562500001	1209.33447265625	247.2711486816407	1041.647338867188	1402.639282226563	156.4741821289063	909.1329956054692	1335.780517578125	167.0001373291016	866.2307128906255	1327.274291992188	217.2189941406251	845.718139648438	1316.049194335938	172.1220397949219	795.1892700195317	1289.513916015625	164.6474761962891	808.893188476563	1195.79736328125	220.1825561523439	672.8044433593752	1271.655151367188	222.5303497314454	633.2077636718752	1260.174194335938	273.2772827148439	612.788513183594	1247.446166992188	228.489227294922	580.3051757812502	1179.901000976563	311.0775756835939	543.6668090820315	1212.353271484375	245.0624389648439	2307.418457031251	1285.461181640625	1512.1015625	83.95433044433597	1283.410278320313	1540.644775390626	
88	0.435	1215.70556640625	1573.328247070313	353.6991577148439	1139.186645507813	1588.271484375001	294.827606201172	1291.361938476563	1588.725097656251	290.6020812988282	1212.245971679688	1449.22802734375	128.7710266113282	1227.049438476563	1244.08740234375	74.25535583496097	1231.364135742188	1211.787475585938	70.13035583496097	1179.570556640625	1150.8056640625	65.27400207519534	1228.462280273438	1150.000732421875	74.67541503906253	1227.361694335938	1109.186645507813	87.91047668457034	1226.690673828125	1086.678588867188	64.70910644531253	1173.603759765625	1027.075073242188	66.08658599853518	1223.198486328125	1024.904174804688	58.4936447143555	1248.5283203125	975.087280273438	69.57500457763675	1198.829956054688	984.7318725585942	76.30890655517581	1210.128784179688	926.4954223632817	46.21047592163087	1337.064331054688	942.6777343750005	285.5878906250001	1109.373168945313	942.196899414063	289.3280334472657	1260.373168945313	991.2297363281255	80.93668365478518	1171.167236328125	989.8379516601567	81.52921295166018	1444.418334960938	737.4307250976565	200.0962677001954	1427.44140625	676.6111450195315	151.1806182861329	1440.900268554688	675.4564208984377	199.6351470947267	1427.589477539063	498.0632324218752	192.1516265869142	1283.89306640625	466.4925842285159	215.3529510498048	1428.770874023438	442.1748962402346	152.2206268310547	1450.21484375	325.8666381835939	144.5241851806641	1444.736450195313	259.8157348632814	101.4298477172852	1450.2568359375	264.0542907714845	150.7772064208985	1434.201171875	85.21291351318362	126.0027084350587	1350.540771484375	96.31446838378912	169.2197265625001	1374.834228515625	38.76291656494142	78.43969726562503	1391.2490234375	47.32276916503908	289.6245422363282	1492.126586914063	32.14223861694337	238.5790863037111	1006.520324707032	708.3052978515627	173.4597625732422	993.003051757813	636.1954345703127	205.2133331298829	1009.717834472657	647.6124267578127	159.3449707031251	1013.982543945313	496.8233642578127	160.0490112304688	1151.978637695313	461.7306823730471	207.9811096191407	1015.339477539063	442.2860107421877	116.2082824707032	998.5128784179692	323.0501098632814	91.05599212646487	983.2858276367192	255.8776397705079	130.7656555175782	1002.535705566407	261.815887451172	84.7050704956055	1016.793762207032	86.67044830322268	89.9921798706055	1084.311889648438	96.96365356445318	152.9304351806641	1077.643920898438	38.09663772583009	58.01581573486331	1022.302795410157	43.20781707763673	261.5822753906251	937.2365112304692	40.99909973144533	202.3669433593751	1224.847778320313	1366.784545898438	278.258270263672	1226.86376953125	1209.320434570313	315.6960754394532	1400.6044921875	1413.517578125	139.3241424560547	1514.089111328125	1348.326293945313	126.7614364624024	1556.411010742188	1297.806884765625	117.464698791504	1573.593994140626	1333.24365234375	151.5236053466797	1681.877929687501	1295.758178710938	162.6723327636719	1631.820800781251	1209.670288085938	185.7024078369141	1767.751586914063	1263.958984375	191.3856506347657	1822.107666015626	1227.418579101563	196.8890686035157	1815.959472656251	1258.877319335938	235.5336303710939	1861.501708984376	1187.429443359375	304.879608154297	1903.850463867188	1209.363403320313	247.3061828613282	1041.637329101563	1402.626342773438	156.5417633056641	909.1166992187505	1335.776000976563	167.0762023925782	866.3270874023442	1327.095825195313	217.2572174072267	845.7090454101567	1316.027099609375	172.1796264648438	795.172485351563	1289.507080078125	164.7048645019532	808.8751831054692	1195.793701171875	220.2272033691407	672.7911376953127	1271.662841796875	222.6069488525392	633.212341308594	1260.171142578125	273.3355407714845	612.769714355469	1247.4404296875	228.5451202392579	580.2813110351565	1179.8994140625	311.1344604492189	543.648132324219	1212.357666015625	245.1128845214845	2307.398925781251	1285.446533203125	1512.088012695313	83.95355987548831	1283.41357421875	1540.639038085938	
89	0.44	1215.701538085938	1573.312866210938	353.7518005371095	1139.18115234375	1588.264648437501	294.8929748535157	1291.359252929688	1588.717041015626	290.6590270996095	1212.182495117188	1449.16796875	128.9446563720704	1227.02734375	1244.078979492188	74.3293151855469	1231.34716796875	1211.7314453125	70.38169860839847	1179.546020507813	1150.8046875	65.33793640136722	1228.430908203125	1149.99853515625	74.7248458862305	1227.330688476563	1109.1865234375	87.99369812011722	1226.6650390625	1086.673583984375	64.78813934326175	1173.583129882813	1027.068237304688	66.171745300293	1223.179443359375	1024.8984375	58.57066345214847	1248.54296875	975.0223999023442	69.62105560302737	1198.823608398438	984.7351074218755	76.38571929931643	1210.106079101563	926.4956665039067	46.2807960510254	1337.066528320313	942.6876831054692	285.673309326172	1109.36767578125	942.2013549804692	289.4122924804689	1260.35400390625	991.2276000976567	81.01152801513675	1171.146240234375	989.8402709960942	81.61064910888675	1444.400390625	737.4236450195315	200.1448974609376	1427.563720703125	676.674743652344	151.1572875976563	1440.90869140625	675.4695434570315	199.6898651123048	1427.589965820313	498.0624694824221	192.1825561523439	1283.893432617188	466.4881286621096	215.3878479003907	1428.763061523438	442.1784667968752	152.2484741210938	1450.209228515625	325.8733520507814	144.5394134521485	1444.736206054688	259.8266601562501	101.4473419189454	1450.255126953125	264.0598144531251	150.795883178711	1434.19580078125	85.21694183349612	126.0116424560547	1350.537353515625	96.3089218139649	169.2225494384766	1374.85693359375	38.77302932739259	78.40419006347659	1391.251708984375	47.32288742065431	289.6258239746095	1492.123413085938	32.13802719116212	238.5774993896486	1006.534790039063	708.307067871094	173.5225067138672	992.9970703125005	636.1939697265627	205.2478637695314	1009.72216796875	647.6158447265627	159.3798980712891	1013.991577148438	496.8220520019534	160.0684204101563	1151.984497070313	461.7245178222659	207.998260498047	1015.348693847657	442.2918701171877	116.2248535156251	998.5141601562505	323.0489501953126	91.07127380371097	983.2932739257817	255.8801269531251	130.7806396484376	1002.535583496094	261.8212280273439	84.70960235595706	1016.797668457032	86.67783355712893	89.99634552001956	1084.313354492188	96.96823120117193	152.9378814697266	1077.65576171875	38.09216690063478	58.03646469116214	1022.299194335938	43.20021820068361	261.5836486816407	937.2414550781255	40.99845504760744	202.3623046875001	1224.83544921875	1366.770141601563	278.318328857422	1226.858154296875	1209.3115234375	315.7622375488282	1400.585693359375	1413.49560546875	139.3749084472657	1514.080810546875	1348.314086914063	126.8102264404297	1556.394287109376	1297.818115234375	117.5639266967774	1573.576293945313	1333.236694335938	151.5522155761719	1681.865966796876	1295.760986328125	162.7044525146485	1631.803466796876	1209.656616210938	185.7248992919922	1767.753906250001	1263.976928710938	191.4291534423829	1822.088623046876	1227.41943359375	196.9367065429689	1815.946655273438	1258.888671875	235.5674591064454	1861.504272460938	1187.449951171875	304.9091186523439	1903.838134765626	1209.386352539063	247.3264465332032	1041.61865234375	1402.625610351563	156.6151733398438	909.1159057617192	1335.75732421875	167.1178588867188	866.3059082031255	1327.093994140625	217.3126068115236	845.692993164063	1316.036865234375	172.2428588867188	795.1516113281255	1289.498413085938	164.7542266845704	808.8569946289067	1195.7861328125	220.2824249267579	672.7593383789065	1271.619750976563	222.6710205078126	633.2861938476565	1259.879516601563	273.4485778808595	612.7986450195315	1247.317504882813	228.6806488037111	580.2564086914065	1179.896606445313	311.1868591308595	543.6240844726565	1212.362548828125	245.1677093505861	2307.408203125001	1285.45751953125	1512.095581054688	83.95417022705081	1283.41259765625	1540.636962890626	
90	0.445	1215.704467773438	1573.321533203126	353.8061523437501	1139.179809570313	1588.265991210938	294.9464111328126	1291.356689453125	1588.710571289063	290.7074584960939	1212.210571289063	1449.205688476563	128.9205017089844	1227.004150390625	1244.068969726563	74.40454101562503	1231.328857421875	1211.733764648438	70.42893218994143	1179.522338867188	1150.794921875	65.41043853759768	1228.421997070313	1149.99951171875	74.77229309082034	1227.310791015625	1109.19091796875	88.07587432861331	1226.641235351563	1086.668090820313	64.8688659667969	1173.565185546875	1027.05712890625	66.24350738525393	1223.1572265625	1024.890014648438	58.64821243286136	1248.493041992188	975.1138305664067	69.73136138916018	1198.809936523438	984.7348022460942	76.49591064453128	1210.080200195313	926.507202148438	46.36235809326173	1337.069458007813	942.6849975585942	285.7507934570314	1109.374633789063	942.2006835937505	289.5057678222657	1260.337524414063	991.2305297851567	81.09133911132815	1171.126586914063	989.844360351563	81.69515228271487	1444.400024414063	737.4283447265627	200.2015533447267	1427.54296875	676.6809692382815	151.1926879882813	1440.908325195313	675.471862792969	199.7392578125001	1427.588745117188	498.0598754882815	192.2139587402345	1284.060424804688	466.3567504882815	215.0045013427736	1428.750854492188	442.1786193847659	152.2642364501954	1450.201904296875	325.8809204101564	144.5666503906251	1444.72900390625	259.8393859863282	101.4534759521485	1450.252319335938	264.0613403320314	150.8065185546876	1434.18994140625	85.21553802490237	126.0151062011719	1350.544189453125	96.31544494628912	169.2321472167969	1374.829956054688	38.7659378051758	78.43962860107425	1391.244018554688	47.32651901245119	289.6231689453126	1492.120727539063	32.13994598388673	238.5789031982423	1006.535766601563	708.3046875000002	173.5719757080079	993.0062866210942	636.1917724609377	205.3008728027345	1009.732727050782	647.618591308594	159.4298553466797	1014.000122070313	496.8232727050784	160.0975036621094	1151.98828125	461.7209167480471	208.0297393798829	1015.357299804688	442.295104980469	116.2509384155274	998.5427246093755	323.0322875976564	91.07373809814456	983.2920532226567	255.8749389648439	130.7882537841797	1002.419860839844	261.9458312988282	84.71531677246097	1016.79736328125	86.6826095581055	89.99842071533206	1084.317993164063	96.96662139892584	152.9387359619141	1077.652587890625	38.10090637207033	58.02244567871097	1022.303100585938	43.20336914062501	261.5845947265626	937.2401733398442	40.9995803833008	202.3595428466798	1224.824340820313	1366.76123046875	278.3799133300782	1226.854248046875	1209.307983398438	315.8256835937501	1400.567993164063	1413.4775390625	139.4151306152344	1514.071655273438	1348.307373046875	126.8398590087891	1556.378295898438	1297.815551757813	117.5883407592774	1573.553100585938	1333.230590820313	151.5916290283204	1681.849731445313	1295.764526367188	162.7223052978516	1631.783447265626	1209.654541015625	185.7534942626954	1767.644165039063	1263.989379882813	191.3985900878907	1822.069091796876	1227.432250976563	196.9613494873048	1815.932250976563	1258.90625	235.5925750732423	1861.496948242188	1187.47216796875	304.9320068359376	1903.837646484376	1209.4189453125	247.3522186279298	1041.604858398438	1402.622314453125	156.6790924072266	909.1034545898442	1335.758544921875	167.1933898925782	866.281127929688	1327.080322265625	217.3755950927736	845.6740722656255	1316.017822265625	172.2904663085938	795.1359863281255	1289.497436523438	164.8095855712891	808.8375854492192	1195.778686523438	220.338592529297	672.7561035156252	1271.64990234375	222.7034149169923	633.2976074218752	1260.028198242188	273.4918823242189	612.6658935546877	1247.548950195313	228.6478576660157	580.2308349609377	1179.900146484375	311.2430725097657	543.616394042969	1212.359375	245.2176055908204	2307.407226562501	1285.451293945313	1512.091186523438	83.9475021362305	1283.415649414063	1540.644165039063	
